<svg width="146" height="44" viewBox="0 0 146 44" fill="none" xmlns="http://www.w3.org/2000/svg">
<rect width="146.003" height="44.0004" rx="22.0002" fill="#684BFB"/>
<path d="M55.9861 21.4104C55.6461 15.6104 50.3761 11.1405 44.3061 12.1405C40.1261 12.8305 36.7762 16.2204 36.1262 20.4004C35.7462 22.8204 36.2462 25.1104 37.3362 27.0004L36.4462 30.3104C36.2462 31.0604 36.9361 31.7404 37.6761 31.5304L40.9361 30.6304C42.4161 31.5004 44.1461 32.0004 45.9961 32.0004C51.6361 32.0004 56.3161 27.0304 55.9861 21.4104ZM50.8862 25.7204C50.7962 25.9004 50.6861 26.0704 50.5461 26.2304C50.2961 26.5004 50.0261 26.7004 49.7261 26.8204C49.4261 26.9504 49.0961 27.0104 48.7461 27.0104C48.2361 27.0104 47.6861 26.8905 47.1161 26.6405C46.5361 26.3905 45.9662 26.0604 45.3962 25.6504C44.8162 25.2304 44.2762 24.7604 43.7562 24.2504C43.2362 23.7304 42.7761 23.1804 42.3561 22.6104C41.9461 22.0404 41.6162 21.4704 41.3762 20.9004C41.1362 20.3304 41.0162 19.7804 41.0162 19.2604C41.0162 18.9204 41.0762 18.5904 41.1962 18.2904C41.3162 17.9804 41.5062 17.7004 41.7762 17.4504C42.0962 17.1304 42.4462 16.9804 42.8162 16.9804C42.9562 16.9804 43.0961 17.0104 43.2261 17.0704C43.3561 17.1304 43.4762 17.2204 43.5662 17.3504L44.7261 18.9904C44.8161 19.1204 44.8861 19.2304 44.9261 19.3404C44.9761 19.4504 44.9961 19.5504 44.9961 19.6504C44.9961 19.7704 44.9562 19.8904 44.8862 20.0104C44.8162 20.1304 44.7261 20.2504 44.6061 20.3704L44.2261 20.7704C44.1661 20.8304 44.1462 20.8904 44.1462 20.9704C44.1462 21.0104 44.1561 21.0504 44.1661 21.0904C44.1861 21.1304 44.1962 21.1604 44.2062 21.1904C44.2962 21.3604 44.4561 21.5704 44.6761 21.8304C44.9061 22.0904 45.1462 22.3604 45.4062 22.6204C45.6762 22.8904 45.9362 23.1304 46.2062 23.3604C46.4662 23.5804 46.6861 23.7304 46.8561 23.8204C46.8861 23.8304 46.9162 23.8504 46.9462 23.8604C46.9862 23.8804 47.0262 23.8804 47.0762 23.8804C47.1662 23.8804 47.2262 23.8504 47.2862 23.7904L47.6661 23.4104C47.7961 23.2804 47.9162 23.1904 48.0262 23.1304C48.1462 23.0604 48.2562 23.0204 48.3862 23.0204C48.4862 23.0204 48.5862 23.0404 48.6962 23.0904C48.8062 23.1404 48.9261 23.2004 49.0461 23.2904L50.7062 24.4704C50.8362 24.5604 50.9261 24.6704 50.9861 24.7904C51.0361 24.9204 51.0662 25.0404 51.0662 25.1804C51.0062 25.3504 50.9662 25.5404 50.8862 25.7204Z" fill="white"/>
<path d="M65.7061 26.5V17.7695H67.0244V21.5664H71.3721V17.7695H72.6904V26.5H71.3721V22.6973H67.0244V26.5H65.7061ZM78.1514 23.793V19.9492H79.417V26.5H78.1748V25.3633H78.1045C77.9482 25.7109 77.7061 26.002 77.3779 26.2363C77.0498 26.4707 76.6396 26.5859 76.1475 26.582C75.7256 26.582 75.3525 26.4902 75.0283 26.3066C74.708 26.123 74.4561 25.8477 74.2725 25.4805C74.0928 25.1133 74.0029 24.6582 74.0029 24.1152V19.9492H75.2686V23.9688C75.2686 24.4102 75.3936 24.7637 75.6436 25.0293C75.8936 25.2949 76.2158 25.4258 76.6104 25.4219C76.8486 25.4219 77.085 25.3633 77.3193 25.2461C77.5576 25.1289 77.7549 24.9492 77.9111 24.707C78.0713 24.4648 78.1514 24.1602 78.1514 23.793ZM83.8643 26.6289C83.4697 26.6289 83.1455 26.5625 82.8916 26.4297C82.6416 26.293 82.4443 26.1348 82.2998 25.9551C82.1592 25.7754 82.0498 25.6172 81.9717 25.4805H81.8662V26.5H80.6357V17.7695H81.9014V21.0156H81.9717C82.0498 20.8789 82.1572 20.7207 82.2939 20.541C82.4346 20.3613 82.6299 20.2051 82.8799 20.0723C83.1299 19.9355 83.4561 19.8672 83.8584 19.8672C84.3857 19.8672 84.8545 20 85.2646 20.2656C85.6787 20.5312 86.0049 20.916 86.2432 21.4199C86.4814 21.9238 86.6006 22.5312 86.6006 23.2422C86.6006 23.9453 86.4834 24.5508 86.249 25.0586C86.0146 25.5625 85.6904 25.9512 85.2764 26.2246C84.8662 26.4941 84.3955 26.6289 83.8643 26.6289ZM83.5889 25.5449C83.9678 25.5449 84.2842 25.4434 84.5381 25.2402C84.792 25.0371 84.9834 24.7617 85.1123 24.4141C85.2451 24.0625 85.3115 23.668 85.3115 23.2305C85.3115 22.7969 85.2471 22.4082 85.1182 22.0645C84.9893 21.7207 84.7979 21.4492 84.5439 21.25C84.29 21.0508 83.9717 20.9512 83.5889 20.9512C83.2178 20.9512 82.9053 21.0469 82.6514 21.2383C82.3975 21.4258 82.2041 21.6914 82.0713 22.0352C81.9424 22.375 81.8779 22.7734 81.8779 23.2305C81.8779 23.6875 81.9443 24.0898 82.0771 24.4375C82.21 24.7852 82.4033 25.0566 82.6572 25.252C82.915 25.4473 83.2256 25.5449 83.5889 25.5449ZM91.6748 23.793V19.9492H92.9404V26.5H91.6982V25.3633H91.6279C91.4717 25.7109 91.2295 26.002 90.9014 26.2363C90.5732 26.4707 90.1631 26.5859 89.6709 26.582C89.249 26.582 88.876 26.4902 88.5518 26.3066C88.2314 26.123 87.9795 25.8477 87.7959 25.4805C87.6162 25.1133 87.5264 24.6582 87.5264 24.1152V19.9492H88.792V23.9688C88.792 24.4102 88.917 24.7637 89.167 25.0293C89.417 25.2949 89.7393 25.4258 90.1338 25.4219C90.3721 25.4219 90.6084 25.3633 90.8428 25.2461C91.0811 25.1289 91.2783 24.9492 91.4346 24.707C91.5947 24.4648 91.6748 24.1602 91.6748 23.793ZM95.4248 22.6152V26.5H94.1592V19.9492H95.3896V21.0273H95.4775C95.626 20.6719 95.8584 20.3906 96.1748 20.1836C96.4912 19.9727 96.8975 19.8672 97.3936 19.8672C97.8389 19.8672 98.2275 19.9609 98.5596 20.1484C98.8955 20.332 99.1553 20.6074 99.3389 20.9746C99.5264 21.3418 99.6201 21.7969 99.6201 22.3398V26.5H98.3545V22.4922C98.3545 22.0195 98.2295 21.6484 97.9795 21.3789C97.7295 21.1055 97.3896 20.9688 96.96 20.9688C96.667 20.9688 96.4033 21.0352 96.1689 21.168C95.9385 21.2969 95.7568 21.4824 95.624 21.7246C95.4912 21.9668 95.4248 22.2637 95.4248 22.6152ZM103.569 29.0898C102.788 29.0898 102.173 28.9434 101.724 28.6504C101.274 28.3574 100.964 28.0098 100.792 27.6074L101.882 27.1562C101.96 27.2812 102.063 27.4141 102.192 27.5547C102.325 27.6953 102.503 27.8145 102.726 27.9121C102.948 28.0098 103.235 28.0586 103.587 28.0586C104.067 28.0586 104.466 27.9414 104.782 27.707C105.099 27.4766 105.257 27.1055 105.257 26.5938V25.3105H105.169C105.099 25.4473 104.991 25.6016 104.847 25.7734C104.702 25.9414 104.505 26.0879 104.255 26.2129C104.005 26.3379 103.679 26.4004 103.276 26.4004C102.761 26.4004 102.296 26.2793 101.882 26.0371C101.472 25.791 101.144 25.4316 100.897 24.959C100.655 24.4824 100.534 23.8965 100.534 23.2012C100.534 22.5059 100.653 21.9102 100.892 21.4141C101.134 20.9141 101.462 20.5312 101.876 20.2656C102.29 20 102.761 19.8672 103.288 19.8672C103.694 19.8672 104.022 19.9355 104.272 20.0723C104.526 20.2051 104.724 20.3613 104.864 20.541C105.005 20.7207 105.114 20.8789 105.192 21.0156H105.286V19.9492H106.522V26.6465C106.522 27.209 106.392 27.6699 106.13 28.0293C105.872 28.3887 105.521 28.6543 105.075 28.8262C104.63 29.002 104.128 29.0898 103.569 29.0898ZM103.558 25.3398C104.108 25.3398 104.53 25.1504 104.823 24.7715C105.12 24.3887 105.269 23.8594 105.269 23.1836C105.269 22.7422 105.204 22.3555 105.075 22.0234C104.946 21.6875 104.755 21.4258 104.501 21.2383C104.247 21.0469 103.933 20.9512 103.558 20.9512C103.175 20.9512 102.854 21.0508 102.597 21.25C102.343 21.4453 102.151 21.7129 102.022 22.0527C101.894 22.3887 101.829 22.7656 101.829 23.1836C101.829 23.6094 101.894 23.9863 102.022 24.3145C102.151 24.6387 102.345 24.8906 102.603 25.0703C102.864 25.25 103.183 25.3398 103.558 25.3398ZM107.741 26.5V19.9492H109.007V26.5H107.741ZM108.38 18.9414C108.157 18.9414 107.968 18.8672 107.812 18.7188C107.655 18.5703 107.577 18.3926 107.577 18.1855C107.577 17.9746 107.655 17.7949 107.812 17.6465C107.968 17.498 108.157 17.4238 108.38 17.4238C108.599 17.4238 108.786 17.498 108.942 17.6465C109.103 17.7949 109.183 17.9746 109.183 18.1855C109.183 18.3926 109.103 18.5703 108.942 18.7188C108.786 18.8672 108.599 18.9414 108.38 18.9414Z" fill="white"/>
</svg>
