<svg width="119" height="119" viewBox="0 0 119 119" fill="none" xmlns="http://www.w3.org/2000/svg">
<mask id="mask0_882_1277" style="mask-type:luminance" maskUnits="userSpaceOnUse" x="17" y="17" width="85" height="85">
<path d="M89.25 89.25C105.68 72.8195 105.68 46.1805 89.25 29.75C72.8195 13.3195 46.1805 13.3195 29.75 29.75C13.3195 46.1805 13.3195 72.8195 29.75 89.25C46.1805 105.68 72.8195 105.68 89.25 89.25Z" fill="white"/>
</mask>
<g mask="url(#mask0_882_1277)">
<path d="M75.1091 55.5371C77.125 46.9241 71.777 38.3077 63.164 36.2918C54.551 34.2759 45.9346 39.6238 43.9187 48.2368C41.9028 56.8498 47.2508 65.4663 55.8637 67.4822C64.4767 69.4981 73.0932 64.1501 75.1091 55.5371Z" fill="#0E2443"/>
<path d="M80.8322 74.6623C82.2829 68.0208 78.0748 61.4607 71.4333 60.01C64.7917 58.5594 58.2316 62.7674 56.781 69.409C55.3303 76.0505 59.5383 82.6106 66.1799 84.0612C72.8215 85.5119 79.3815 81.3039 80.8322 74.6623Z" fill="#0E2443"/>
<path d="M62.2134 74.7C63.6811 68.0625 59.4901 61.492 52.8527 60.0243C46.2152 58.5567 39.6446 62.7476 38.177 69.3851C36.7093 76.0226 40.9003 82.5931 47.5378 84.0608C54.1752 85.5284 60.7458 81.3375 62.2134 74.7Z" fill="#0E2443"/>
<path d="M87.8032 95.7547C87.8032 105.295 31.2031 105.295 31.2031 95.7547C31.2031 86.2145 53.538 82.5049 59.5032 82.5049C65.4688 82.5049 87.8032 86.2145 87.8032 95.7547Z" fill="#CFE1FF"/>
<path d="M59.5033 87.4097C56.7339 87.4097 54.4893 85.1646 54.4893 82.3956V70.9727H64.5173V82.3956C64.5173 85.1651 62.2727 87.4097 59.5033 87.4097Z" fill="#A0C4FF"/>
<path d="M64.5154 79.4616V75.0889H54.4883V79.4616C56.0371 80.0915 57.7328 80.4373 59.5042 80.4373C61.2757 80.4373 62.9666 80.0915 64.5154 79.4616Z" fill="#80B1FF"/>
<path d="M59.5032 77.2841C52.1223 77.2841 46.1396 71.301 46.1396 63.9206V53.3127C46.1396 45.9324 52.1228 39.9492 59.5032 39.9492C66.8836 39.9492 72.8667 45.9324 72.8667 53.3127V63.9206C72.8672 71.301 66.884 77.2841 59.5032 77.2841Z" fill="#A0C4FF"/>
<path d="M44.7909 66.0017C46.8096 66.0017 48.446 64.3652 48.446 62.3466C48.446 60.3279 46.8096 58.6914 44.7909 58.6914C42.7722 58.6914 41.1357 60.3279 41.1357 62.3466C41.1357 64.3652 42.7722 66.0017 44.7909 66.0017Z" fill="#A0C4FF"/>
<path d="M42.1812 62.5834C42.0504 62.5834 41.9443 62.4773 41.9443 62.3466C41.9443 60.7765 43.2217 59.499 44.7919 59.499C44.9226 59.499 45.0287 59.6051 45.0287 59.7358C45.0287 59.8666 44.9226 59.9727 44.7919 59.9727C43.4827 59.9727 42.418 61.0374 42.418 62.3466C42.418 62.4773 42.3124 62.5834 42.1812 62.5834Z" fill="#0E2443"/>
<path d="M74.2138 66.0017C76.2324 66.0017 77.8689 64.3652 77.8689 62.3466C77.8689 60.3279 76.2324 58.6914 74.2138 58.6914C72.1951 58.6914 70.5586 60.3279 70.5586 62.3466C70.5586 64.3652 72.1951 66.0017 74.2138 66.0017Z" fill="#A0C4FF"/>
<path d="M76.8251 62.5834C76.6944 62.5834 76.5883 62.4773 76.5883 62.3466C76.5883 61.0374 75.5235 59.9727 74.2144 59.9727C74.0836 59.9727 73.9775 59.8666 73.9775 59.7358C73.9775 59.6051 74.0836 59.499 74.2144 59.499C75.7845 59.499 77.0619 60.7765 77.0619 62.3466C77.0619 62.4773 76.9558 62.5834 76.8251 62.5834Z" fill="#0E2443"/>
<path d="M43.487 67.0619C44.2079 67.0619 44.7924 66.4775 44.7924 65.7566C44.7924 65.0356 44.2079 64.4512 43.487 64.4512C42.7661 64.4512 42.1816 65.0356 42.1816 65.7566C42.1816 66.4775 42.7661 67.0619 43.487 67.0619Z" fill="white"/>
<path d="M75.5202 67.0619C76.2411 67.0619 76.8256 66.4775 76.8256 65.7566C76.8256 65.0356 76.2411 64.4512 75.5202 64.4512C74.7993 64.4512 74.2148 65.0356 74.2148 65.7566C74.2148 66.4775 74.7993 67.0619 75.5202 67.0619Z" fill="white"/>
<path d="M45.7119 56.8466C45.7119 56.8466 49.8071 47.1676 63.0977 47.1676C69.7596 47.1676 72.8785 50.9212 72.8667 53.8039V50.9482C72.8667 43.4499 66.7879 37.3711 59.2895 37.3711C51.7912 37.3711 45.7124 43.4499 45.7124 50.9482V56.8466H45.7119Z" fill="#0E2443"/>
</g>
</svg>
